<?xml version="1.0" standalone="no"?>
<!DOCTYPE svg PUBLIC "-//W3C//DTD SVG 20010904//EN"
 "http://www.w3.org/TR/2001/REC-SVG-20010904/DTD/svg10.dtd">
<svg version="1.0" xmlns="http://www.w3.org/2000/svg"
 width="180.000000pt" height="180.000000pt" viewBox="0 0 180.000000 180.000000"
 preserveAspectRatio="xMidYMid meet">
<metadata>
Created by potrace 1.14, written by Peter Selinger 2001-2017
</metadata>
<g transform="translate(0.000000,180.000000) scale(0.100000,-0.100000)"
fill="#000000" stroke="none">
<path d="M1477 1793 c-1 0 -42 -4 -92 -7 -174 -13 -386 -44 -480 -72 -27 -8
-52 -14 -55 -14 -42 -1 -225 -67 -339 -122 -243 -119 -404 -288 -477 -503 -24
-70 -28 -96 -28 -205 -1 -154 22 -239 93 -346 l48 -72 -48 -97 c-52 -107 -88
-214 -96 -287 -5 -44 -3 -48 21 -59 35 -16 52 1 61 61 12 81 105 320 125 320
5 0 37 -17 71 -38 110 -67 250 -104 396 -104 114 -1 151 4 235 33 187 63 327
227 413 483 13 39 37 131 54 204 36 156 67 251 112 347 63 132 150 261 252
370 96 102 78 117 -124 113 -77 -2 -141 -4 -142 -5z"/>
</g>
</svg>
